<svg xmlns="http://www.w3.org/2000/svg" viewBox="0 0 797.84 210.44"><defs><style>.cls-1{fill:#333;}</style></defs><g id="Layer_2" data-name="Layer 2"><g id="Layer_1-2" data-name="Layer 1"><polygon class="cls-1" points="17.18 64.85 0 54.93 0 155.52 17.18 145.6 17.18 64.85"/><polygon class="cls-1" points="178.86 54.93 178.86 155.52 161.67 145.6 161.67 64.85 178.86 54.93"/><polygon class="cls-1" points="17.18 150.23 0 160.15 87.11 210.44 87.11 190.6 17.18 150.23"/><polygon class="cls-1" points="161.68 150.23 178.86 160.15 91.75 210.44 91.75 190.6 161.68 150.23"/><polygon class="cls-1" points="91.74 0 178.86 50.3 161.67 60.22 91.74 19.84 91.74 0"/><polygon class="cls-1" points="87.11 0 0 50.3 17.18 60.22 87.11 19.84 87.11 0"/><polygon class="cls-1" points="104.97 127.9 104.97 82.54 116.53 89.17 116.53 121.19 104.97 127.9"/><polygon class="cls-1" points="89.43 116.57 89.43 93.88 96.5 97.93 96.5 112.46 89.43 116.57"/><polygon class="cls-1" points="129.36 141.66 129.36 68.78 146.54 78.64 146.54 131.68 129.36 141.66"/><path class="cls-1" d="M258.93,155.52V130.23H195.65V113.05l64.4-58.12h17.18v56.86h14.11v18.44H277.23v25.29Zm-34.78-43.73h34.78V82.73Z"/><path class="cls-1" d="M318.28,155.52a18.06,18.06,0,0,1-18-18v-81h17.11V79.75h29.52V96.86H317.37v37c0,2.44.15,3.81.46,4.12s1.67.45,4.11.45h24.95v17.12Z"/><path class="cls-1" d="M359.56,155.52V54.93h17.12V79.75h41.8a18.18,18.18,0,0,1,18,18v57.74H419.39V101.43q0-3.65-.45-4.11c-.31-.31-1.68-.46-4.12-.46H381.25c-2.44,0-3.81.15-4.12.46s-.45,1.68-.45,4.11v54.09Z"/><path class="cls-1" d="M480.19,155.52v-82H439.12V54.93H539.71V73.51H498.77v82Z"/><path class="cls-1" d="M563.61,155.52a18.06,18.06,0,0,1-18-18V97.78a18.06,18.06,0,0,1,18-18H604.5a18.06,18.06,0,0,1,18,18v28.47H562.7v7.58c0,2.44.15,3.81.46,4.12s1.67.45,4.11.45h55.26v17.12Zm-.91-44.68h42.72v-9.41c0-2.43-.16-3.8-.46-4.11s-1.68-.46-4.11-.46H567.27c-2.44,0-3.81.15-4.11.46s-.46,1.68-.46,4.11Z"/><path class="cls-1" d="M651,155.52a18.06,18.06,0,0,1-18-18V97.78a18.06,18.06,0,0,1,18-18h58.78V96.86H654.67c-2.44,0-3.82.15-4.12.46s-.46,1.68-.46,4.11v32.4c0,2.44.15,3.81.46,4.12s1.68.45,4.12.45h55.25v17.12Z"/><path class="cls-1" d="M720.9,155.52V54.93H738V79.75h41.81A17.44,17.44,0,0,1,792.49,85a17.26,17.26,0,0,1,5.35,12.74v57.74H780.73V101.43c0-2.43-.15-3.8-.46-4.11s-1.68-.46-4.11-.46H742.58c-2.44,0-3.81.15-4.11.46S738,99,738,101.43v54.09Z"/></g></g></svg>
