<svg xmlns="http://www.w3.org/2000/svg" viewBox="0 0 772 772"><defs><style>.cls-1{fill:#1a1a1a;}.cls-2,.cls-4,.cls-5{fill:#2cd8a7;}.cls-3{fill:#fff;}.cls-4{opacity:0.6;}.cls-5{opacity:0.3;}</style></defs><g id="Layer_2" data-name="Layer 2"><g id="Layer_1-2" data-name="Layer 1"><rect class="cls-1" width="772" height="772"/><polygon class="cls-2" points="186.78 277.46 140.59 250.79 140.59 521.21 186.78 494.54 186.78 277.46"/><polygon class="cls-3" points="628.41 250.79 628.41 521.21 582.22 494.54 582.22 277.46 628.41 250.79"/><polygon class="cls-4" points="189.78 506.99 143.59 533.65 377.77 668.87 377.77 615.52 189.78 506.99"/><polygon class="cls-5" points="578.22 506.99 624.41 533.65 390.23 668.87 390.23 615.52 578.22 506.99"/><polygon class="cls-5" points="390.23 103.13 624.41 238.34 578.22 265.01 390.23 156.47 390.23 103.13"/><polygon class="cls-4" points="377.78 103.13 143.59 238.34 189.79 265.01 377.78 156.47 377.78 103.13"/><polygon class="cls-3" points="425.77 446.97 425.77 325.03 456.84 342.85 456.84 428.92 425.77 446.97"/><polygon class="cls-3" points="383.99 416.51 383.99 355.5 403 366.4 403 405.47 383.99 416.51"/><polygon class="cls-3" points="491.34 483.96 491.34 288.04 537.53 314.55 537.53 457.12 491.34 483.96"/></g></g></svg>