<svg xmlns="http://www.w3.org/2000/svg" viewBox="0 0 926.84 244.46"><defs><style>.cls-1{fill:#2cd8a7;}</style></defs><g id="Layer_2" data-name="Layer 2"><g id="Layer_1-2" data-name="Layer 1"><polygon points="207.77 63.81 207.77 180.66 187.81 169.14 187.81 75.33 207.77 63.81"/><polygon class="cls-1" points="19.96 75.33 0 63.81 0 180.66 19.96 169.14 19.96 75.33"/><polygon class="cls-1" points="19.96 174.51 0 186.04 101.2 244.46 101.2 221.42 19.96 174.51"/><polygon class="cls-1" points="187.81 174.51 207.77 186.04 106.58 244.46 106.58 221.42 187.81 174.51"/><polygon class="cls-1" points="106.58 0 207.78 58.43 187.81 69.95 106.58 23.05 106.58 0"/><polygon class="cls-1" points="101.2 0 0 58.43 19.96 69.95 101.2 23.05 101.2 0"/><polygon points="121.94 148.58 121.94 95.89 135.37 103.59 135.37 140.78 121.94 148.58"/><polygon points="103.89 135.41 103.89 109.05 112.1 113.76 112.1 130.65 103.89 135.41"/><polygon points="150.27 164.56 150.27 79.9 170.23 91.36 170.23 152.97 150.27 164.56"/><path d="M300.8,180.66V151.29H227.28v-20L302.1,63.81h20v66.05h16.39v21.43H322.06v29.37Zm-40.41-50.8H300.8V96.1Z"/><path d="M369.74,180.66a21,21,0,0,1-20.94-20.94V65.63h19.88v27H403v19.88h-34.3v43c0,2.83.18,4.43.53,4.78s2,.53,4.78.53h29v19.88Z"/><path d="M417.7,180.66V63.81h19.88V92.64h48.56a20.25,20.25,0,0,1,14.72,6.15,20,20,0,0,1,6.22,14.79v67.08H487.2V117.83c0-2.83-.18-4.42-.53-4.78s-1.95-.53-4.78-.53h-39c-2.83,0-4.43.18-4.78.53s-.53,2-.53,4.78v62.83Z"/><path d="M557.83,180.66V85.39H510.12V63.81H627V85.39H579.42v95.27Z"/><path d="M654.74,180.66a21,21,0,0,1-20.94-20.94V113.58a21,21,0,0,1,20.94-20.94h47.5a21,21,0,0,1,20.94,20.94v33.09h-69.5v8.8c0,2.83.17,4.43.53,4.78s1.95.53,4.78.53h64.19v19.88Zm-1.06-51.9H703.3V117.83c0-2.83-.18-4.42-.53-4.78s-1.95-.53-4.78-.53H659c-2.83,0-4.43.18-4.78.53s-.53,2-.53,4.78Z"/><path d="M756.26,180.66a21,21,0,0,1-20.94-20.94V113.58a21,21,0,0,1,20.94-20.94h68.29v19.88h-64c-2.83,0-4.42.18-4.78.53s-.53,2-.53,4.78v37.64c0,2.83.18,4.43.53,4.78s1.95.53,4.78.53h64.2v19.88Z"/><path d="M837.45,180.66V63.81h19.88V92.64H905.9a21.12,21.12,0,0,1,20.94,20.94v67.08H907V117.83c0-2.83-.18-4.42-.53-4.78s-1.95-.53-4.78-.53h-39c-2.84,0-4.43.18-4.79.53s-.53,2-.53,4.78v62.83Z"/></g></g></svg>