<svg xmlns="http://www.w3.org/2000/svg" viewBox="0 0 487.82 565.74"><defs><style>.cls-1,.cls-2,.cls-3{fill:#2cd8a7;}.cls-2{opacity:0.6;}.cls-3{opacity:0.3;}</style></defs><g id="Layer_2" data-name="Layer 2"><g id="Layer_1-2" data-name="Layer 1"><polygon class="cls-1" points="46.19 174.33 0 147.66 0 418.08 46.19 391.41 46.19 174.33"/><polygon points="487.82 147.66 487.82 418.08 441.64 391.41 441.64 174.33 487.82 147.66"/><polygon class="cls-2" points="49.19 403.86 3 430.52 237.18 565.74 237.18 512.39 49.19 403.86"/><polygon class="cls-3" points="437.64 403.86 483.82 430.52 249.64 565.74 249.64 512.39 437.64 403.86"/><polygon class="cls-3" points="249.64 0 483.82 135.21 437.64 161.88 249.64 53.34 249.64 0"/><polygon class="cls-2" points="237.19 0 3 135.21 49.2 161.88 237.19 53.34 237.19 0"/><polygon points="285.19 343.84 285.19 221.9 316.26 239.72 316.26 325.79 285.19 343.84"/><polygon points="243.41 313.38 243.41 252.37 262.41 263.27 262.41 302.33 243.41 313.38"/><polygon points="350.75 380.83 350.75 184.91 396.94 211.42 396.94 353.99 350.75 380.83"/></g></g></svg>