<svg xmlns="http://www.w3.org/2000/svg" viewBox="0 0 734.47 129"><defs><style>.cls-1{fill:none;stroke:#4be6a7;stroke-miterlimit:10;stroke-width:12px;}</style></defs><g id="Layer_2" data-name="Layer 2"><g id="Layer_1-2" data-name="Layer 1"><path d="M218.1,87.06q0,7.69-4.14,12.48a24.12,24.12,0,0,1-11.1,7.08,48.92,48.92,0,0,1-15.36,2.29H145.61V23.7h49.45a17.23,17.23,0,0,1,10.38,3.18,20.79,20.79,0,0,1,6.72,8.22,24.52,24.52,0,0,1,2.34,10.44,23.22,23.22,0,0,1-3.06,11.4,19.15,19.15,0,0,1-9.18,8.28,22.37,22.37,0,0,1,11.58,7.56Q218.1,78.18,218.1,87.06ZM169,43.62V56.7h16a8.57,8.57,0,0,0,3-.54,4.94,4.94,0,0,0,2.39-2,7.33,7.33,0,0,0,1-4.08,7.83,7.83,0,0,0-.77-3.78,5.13,5.13,0,0,0-2-2,6.05,6.05,0,0,0-2.83-.66Zm25.33,38.64a8.77,8.77,0,0,0-.78-3.78,6.91,6.91,0,0,0-2.1-2.58,5.19,5.19,0,0,0-3.13-1H169V89.22H187.5a7.16,7.16,0,0,0,3.48-.84,6.23,6.23,0,0,0,2.46-2.4A7.29,7.29,0,0,0,194.34,82.26Z"/><path d="M226.38,21.3h22.8V83.82a8.31,8.31,0,0,0,1.5,5.34A5.27,5.27,0,0,0,255.06,91a11,11,0,0,0,3.12-.48,12.73,12.73,0,0,0,3.12-1.32L264.18,106a41.9,41.9,0,0,1-9.18,3,46.69,46.69,0,0,1-9.66,1.08q-9.12,0-14-4.74t-4.92-13.51Z"/><path d="M300.54,110.11a39.79,39.79,0,0,1-14.88-2.6A30.24,30.24,0,0,1,268.2,90,33.62,33.62,0,0,1,266,77.88a34,34,0,0,1,2.22-12.21,29.72,29.72,0,0,1,6.6-10.33,31.1,31.1,0,0,1,10.86-7.08,44.05,44.05,0,0,1,29.82,0,31.21,31.21,0,0,1,10.8,7.08,29.72,29.72,0,0,1,6.6,10.33,34,34,0,0,1,2.22,12.21A33.62,33.62,0,0,1,332.88,90a30.36,30.36,0,0,1-17.4,17.47A39.68,39.68,0,0,1,300.54,110.11ZM289.38,77.88a15.72,15.72,0,0,0,1.44,7,10.75,10.75,0,0,0,19.44,0,15.72,15.72,0,0,0,1.44-7,15.71,15.71,0,0,0-1.44-7,10.61,10.61,0,0,0-4-4.49,11.41,11.41,0,0,0-11.52,0,10.61,10.61,0,0,0-4,4.49A15.71,15.71,0,0,0,289.38,77.88Z"/><path d="M374.34,110.11a39.33,39.33,0,0,1-14.82-2.6,31.41,31.41,0,0,1-10.86-7.14A30.81,30.81,0,0,1,341.94,90a33.43,33.43,0,0,1,1.74-28,30.38,30.38,0,0,1,11.76-11.86q7.74-4.49,18.9-4.49,11.4,0,19.2,4.8a30.77,30.77,0,0,1,11.64,12.36L383,69.54a10.78,10.78,0,0,0-3.78-3.48,10.3,10.3,0,0,0-5-1.2,10.5,10.5,0,0,0-5.64,1.56,11.12,11.12,0,0,0-4,4.44,15,15,0,0,0-1.5,7,15.19,15.19,0,0,0,1.5,7,11.07,11.07,0,0,0,4,4.49,11.2,11.2,0,0,0,9.12,1,10.13,10.13,0,0,0,2.94-1.62A10.77,10.77,0,0,0,383,86.22l22.2,6.72a29,29,0,0,1-6.9,8.89,32.79,32.79,0,0,1-10.32,6A38.74,38.74,0,0,1,374.34,110.11Z"/><path d="M454,108.91,439.75,86.17l-4.56,5v17.77H412.38V21.3h22.81V69.71L452,46.62h24L454.27,73.86l23.88,35.05Z"/><path d="M488,108.91V23.7h4.21v81.37h52.2v3.84Z"/><path d="M550.51,91.09a14.32,14.32,0,0,1,3.36-9.51A22.67,22.67,0,0,1,563,75.24a35.55,35.55,0,0,1,13.44-2.34,63.5,63.5,0,0,1,10.44.9,55.56,55.56,0,0,1,9.72,2.46v-6.6q0-9.12-5.34-14.7t-14.34-5.58a27.45,27.45,0,0,0-9.66,1.92,46.75,46.75,0,0,0-10.38,5.64l-2-3a53.85,53.85,0,0,1,11.64-6.24,30.74,30.74,0,0,1,10.68-2q10.8,0,17.16,6.53t6.36,17.66v32.82a3.08,3.08,0,0,0,.54,2,2,2,0,0,0,1.62.65v3.61h-1.38a2.88,2.88,0,0,1-.9-.12,4.13,4.13,0,0,1-2.64-1.8,6.36,6.36,0,0,1-1.08-3.12V98.46A28.75,28.75,0,0,1,585.67,107,35.45,35.45,0,0,1,571,110.11a21.66,21.66,0,0,1-10.44-2.52,19.09,19.09,0,0,1-7.38-6.87A18,18,0,0,1,550.51,91.09Zm43.92,5.37a12,12,0,0,0,1.62-2.8,6.86,6.86,0,0,0,.54-2.45V79.85a53.18,53.18,0,0,0-9.66-2.69,57.59,57.59,0,0,0-10.26-.9q-10,0-16.08,4t-6.12,10.58a14.72,14.72,0,0,0,2.22,7.89,16.25,16.25,0,0,0,6.12,5.73,17.64,17.64,0,0,0,8.7,2.15,32.57,32.57,0,0,0,13.62-2.8A21.89,21.89,0,0,0,594.43,96.46Z"/><path d="M647.35,110.11a26,26,0,0,1-13.86-4,31,31,0,0,1-10.26-9.9v12.73h-3.84V21.3h4.08V60.78a44.23,44.23,0,0,1,10.8-10.86,24.17,24.17,0,0,1,14.16-4.26,25.33,25.33,0,0,1,12.12,2.82A29.18,29.18,0,0,1,669.61,56a33.12,33.12,0,0,1,5.7,10.43A36.41,36.41,0,0,1,677.23,78,32.49,32.49,0,0,1,675,90.1a33.39,33.39,0,0,1-6.36,10.24,31.14,31.14,0,0,1-9.48,7.13A26.41,26.41,0,0,1,647.35,110.11Zm-.6-3.84a23.77,23.77,0,0,0,10.56-2.34,25.66,25.66,0,0,0,8.34-6.47,31.85,31.85,0,0,0,5.52-9.16,27.85,27.85,0,0,0,2-10.3,30.94,30.94,0,0,0-3.24-14A28,28,0,0,0,661,53.51a22.21,22.21,0,0,0-13.2-4A21.84,21.84,0,0,0,637.51,52a28.73,28.73,0,0,0-8.16,6.34,40.72,40.72,0,0,0-5.88,8.57V88.54a14.19,14.19,0,0,0,2.64,6.83,23.19,23.19,0,0,0,5.82,5.69,31.63,31.63,0,0,0,7.44,3.83A22.15,22.15,0,0,0,646.75,106.27Z"/><path d="M711.07,110.11a36,36,0,0,1-13.38-2.46A28.94,28.94,0,0,1,686.83,100L689,97.14a35.18,35.18,0,0,0,10.32,7.08A28.89,28.89,0,0,0,711,106.5q8.76,0,14.16-3.71a11.8,11.8,0,0,0,5.4-10.29,8.93,8.93,0,0,0-2.46-6.71A17.8,17.8,0,0,0,721,81.9q-4.62-1.5-11.22-3.06A105.52,105.52,0,0,1,699,75.55a14.48,14.48,0,0,1-6.42-4.37q-2.16-2.76-2.16-7.67,0-6.23,3.06-10.12a18.28,18.28,0,0,1,8.16-5.81,31.61,31.61,0,0,1,11.22-1.92,30.13,30.13,0,0,1,12.84,2.52,17.62,17.62,0,0,1,7.8,6.36l-2.64,2.28a16.16,16.16,0,0,0-7.62-5.64,29.94,29.94,0,0,0-10.86-1.92,26.51,26.51,0,0,0-8.88,1.44,15.17,15.17,0,0,0-6.6,4.37,11.64,11.64,0,0,0-2.52,7.85,9.25,9.25,0,0,0,1.8,6.1,12,12,0,0,0,5.4,3.42c2.4.84,5.44,1.73,9.12,2.69q7.32,1.8,12.66,3.66a20.44,20.44,0,0,1,8.22,4.85c1.92,2,2.88,4.79,2.88,8.38a15.68,15.68,0,0,1-6.42,13.23Q721.63,110.11,711.07,110.11Z"/><rect class="cls-1" x="6" y="6" width="117" height="117"/></g></g></svg>