<svg xmlns="http://www.w3.org/2000/svg" viewBox="0 0 95.62 95.7"><defs><style>.cls-1{fill:#22373d;}.cls-2{fill:#ccc;}.cls-3{fill:#e9b40b;}.cls-4{fill:#e6e6e6;}.cls-5{fill:#fff;}</style></defs><g id="Layer_2" data-name="Layer 2"><g id="Layer_1-2" data-name="Layer 1"><rect class="cls-1" width="95.62" height="95.7" rx="13"/><polygon class="cls-2" points="17.03 31.07 9.89 26.95 9.89 68.76 17.03 64.63 17.03 31.07"/><polygon class="cls-3" points="85.73 26.95 85.73 68.76 78.58 64.63 78.58 31.07 85.73 26.95"/><polygon class="cls-4" points="17.78 66.56 10.64 70.68 46.84 91.59 46.84 83.34 17.78 66.56"/><polygon class="cls-5" points="77.84 66.56 84.98 70.68 48.77 91.59 48.77 83.34 77.84 66.56"/><polygon class="cls-5" points="48.77 4.12 84.98 25.02 77.84 29.14 48.77 12.36 48.77 4.12"/><polygon class="cls-4" points="46.84 4.12 10.64 25.02 17.78 29.14 46.84 12.36 46.84 4.12"/><polygon class="cls-3" points="55.01 57.28 55.01 38.42 59.82 41.18 59.82 54.49 55.01 57.28"/><polygon class="cls-3" points="48.56 52.57 48.56 43.14 51.49 44.82 51.49 50.86 48.56 52.57"/><polygon class="cls-3" points="65.15 63 65.15 32.71 72.29 36.8 72.29 58.85 65.15 63"/></g></g></svg>